<svg width="315" height="238" viewBox="0 0 315 238" fill="none" xmlns="http://www.w3.org/2000/svg">
<path fill-rule="evenodd" clip-rule="evenodd" d="M77 124.708L126.5 96.4645L143 118.107L159.5 96.4645L209 124.708V200.269L143 238L77 200.269V124.708ZM87.1538 136.416V194.369L137.923 223.393V165.44L87.1538 136.416ZM148.077 165.44V223.393L198.846 194.369V136.416L148.077 165.44ZM193.671 127.661L155.668 105.977L143 127.661L130.332 105.977L92.3291 127.661L143 156.572L193.671 127.661Z" fill="#0038FF"/>
<path fill-rule="evenodd" clip-rule="evenodd" d="M142.898 130.71C142.898 130.71 194.988 45.5971 194.988 29.3742C194.988 13.1513 171.667 0 142.898 0C114.13 0 90.8092 13.1513 90.8092 29.3742C90.8092 45.5971 142.898 130.71 142.898 130.71ZM142.898 112.415C142.898 112.415 183.006 45.5686 183.006 32.8274C183.006 20.0863 165.049 9.75752 142.898 9.75752C120.748 9.75752 102.791 20.0863 102.791 32.8274C102.791 45.5686 142.898 112.415 142.898 112.415Z" fill="#0038FF"/>
<path d="M193.978 30.289C193.978 30.289 195.805 65.1518 143.107 65.1517C90.4086 65.1517 92.0332 30.289 92.0332 30.289H102.999C102.999 30.289 103.101 54.9876 143.107 54.9876C183.113 54.9876 183.113 30.289 183.113 30.289H193.978Z" fill="#0038FF"/>
<path d="M65.8161 45.4181H78.6825V103.118H65.8161V45.4181Z" fill="#0038FF"/>
<path d="M286.362 45.6969L299.228 45.6968L315 45.6969V55.8711H299.228V103.118H286.362V55.8711H269.622V45.6969H286.362Z" fill="#0038FF"/>
<path d="M22.2199 47.3693C26.6432 47.3693 30.386 48.1521 33.4482 49.7175C36.5105 51.2324 38.8437 53.4038 40.4477 56.2316C42.0517 59.009 42.8538 62.3166 42.8538 66.1544C42.8538 68.4268 42.5135 70.7244 41.833 73.0473C41.2011 75.3197 40.156 77.3901 38.6978 79.2585C37.2882 81.1269 35.3682 82.6418 32.9379 83.8032C30.5561 84.9142 27.6154 85.4696 24.1156 85.4696H10.5721V103.118H0V47.3693H22.2199ZM24.0427 74.7894C25.6468 74.7894 26.9835 74.5117 28.0528 73.9562C29.1222 73.3503 29.9485 72.618 30.5318 71.7596C31.1637 70.8506 31.6012 69.9164 31.8442 68.957C32.1358 67.9975 32.2817 67.1643 32.2817 66.4574C32.2817 65.9019 32.1844 65.1697 31.99 64.2607C31.8442 63.3013 31.5039 62.3418 30.9693 61.3824C30.4346 60.4229 29.6083 59.615 28.4903 58.9585C27.4209 58.302 25.9627 57.9738 24.1156 57.9738H10.5721V74.7894H24.0427Z" fill="#0038FF"/>
<path d="M197.223 73.7848C197.223 68.3767 198.496 63.492 201.042 59.1307C203.676 54.7694 207.275 51.3239 211.84 48.7944C216.405 46.2648 221.585 45 227.379 45C233.348 45 238.572 46.2648 243.049 48.7944C247.526 51.3239 250.994 54.7694 253.452 59.1307C255.91 63.492 257.139 68.3767 257.139 73.7848C257.139 79.1928 255.91 84.1211 253.452 88.5696C250.994 92.931 247.482 96.3764 242.917 98.906C238.44 101.436 233.217 102.7 227.247 102.7C221.453 102.7 216.273 101.523 211.708 99.1677C207.231 96.7253 203.676 93.3671 201.042 89.093C198.496 84.7317 197.223 79.6289 197.223 73.7848ZM209.47 73.9156C209.47 77.4047 210.26 80.5884 211.84 83.4669C213.42 86.2582 215.527 88.4824 218.161 90.1397C220.882 91.797 223.867 92.6257 227.115 92.6257C230.539 92.6257 233.568 91.797 236.202 90.1397C238.923 88.4824 241.03 86.2582 242.522 83.4669C244.015 80.5884 244.761 77.4047 244.761 73.9156C244.761 70.4265 244.015 67.2864 242.522 64.4951C241.03 61.6166 238.923 59.3488 236.202 57.6915C233.568 55.9469 230.539 55.0747 227.115 55.0747C223.779 55.0747 220.751 55.9469 218.029 57.6915C215.396 59.436 213.289 61.7475 211.708 64.626C210.216 67.4172 209.47 70.5138 209.47 73.9156Z" fill="#0038FF"/>
</svg>
